<svg xmlns="http://www.w3.org/2000/svg" viewBox="185 56 81 30">
      <path d="M197.968 60.5662V71L195.59 69.6412C191.368 67.2147 188.747 62.7015 188.747 57.8H187V69.7382C187 73.6206 189.232 77.2118 192.775 78.9103L198.016 81.4338V71L200.394 72.3588C204.616 74.7853 207.237 79.2985 207.237 84.2H208.984V72.2618C208.984 68.3794 206.751 64.7882 203.209 63.0897L197.968 60.5662Z" fill="#015BDC"/>
      <path d="M214.088 69V57.8H218.264C219.17 57.8 219.917 57.9547 220.504 58.264C221.09 58.5733 221.528 58.9893 221.816 59.512C222.104 60.024 222.248 60.5947 222.248 61.224C222.248 61.8213 222.109 62.3813 221.832 62.904C221.554 63.416 221.117 63.832 220.52 64.152C219.933 64.4613 219.176 64.616 218.248 64.616H216.248V69H214.088ZM219.896 69L217.592 64.072H219.928L222.36 69H219.896ZM216.248 63.048H218.136C218.786 63.048 219.266 62.888 219.576 62.568C219.885 62.248 220.04 61.8267 220.04 61.304C220.04 60.7813 219.885 60.3707 219.576 60.072C219.277 59.7627 218.797 59.608 218.136 59.608H216.248V63.048ZM226.241 69.192C225.431 69.192 224.711 69.0213 224.081 68.68C223.463 68.328 222.977 67.8427 222.625 67.224C222.284 66.5947 222.113 65.8693 222.113 65.048C222.113 64.2053 222.284 63.464 222.625 62.824C222.977 62.1733 223.463 61.6667 224.081 61.304C224.7 60.9307 225.42 60.744 226.241 60.744C227.041 60.744 227.74 60.92 228.337 61.272C228.935 61.624 229.399 62.0987 229.729 62.696C230.06 63.2933 230.225 63.9707 230.225 64.728C230.225 64.8347 230.225 64.9573 230.225 65.096C230.225 65.224 230.215 65.3573 230.193 65.496H223.649V64.184H228.049C228.017 63.6613 227.831 63.2507 227.489 62.952C227.159 62.6533 226.743 62.504 226.241 62.504C225.879 62.504 225.543 62.5893 225.233 62.76C224.924 62.92 224.679 63.1707 224.497 63.512C224.327 63.8533 224.241 64.2853 224.241 64.808V65.272C224.241 65.7093 224.321 66.0933 224.481 66.424C224.652 66.744 224.887 66.9947 225.185 67.176C225.484 67.3467 225.831 67.432 226.225 67.432C226.62 67.432 226.945 67.3467 227.201 67.176C227.468 67.0053 227.665 66.7867 227.793 66.52H230.001C229.852 67.0213 229.601 67.4747 229.249 67.88C228.897 68.2853 228.465 68.6053 227.953 68.84C227.441 69.0747 226.871 69.192 226.241 69.192ZM234.618 69.192C233.808 69.192 233.082 69.0533 232.442 68.776C231.813 68.4987 231.312 68.0933 230.938 67.56C230.576 67.0267 230.389 66.3813 230.378 65.624H232.666C232.677 65.9547 232.762 66.2533 232.922 66.52C233.082 66.7867 233.301 67 233.578 67.16C233.866 67.3093 234.208 67.384 234.602 67.384C234.944 67.384 235.237 67.3307 235.482 67.224C235.738 67.1067 235.936 66.9467 236.074 66.744C236.213 66.5413 236.282 66.3013 236.282 66.024C236.282 65.704 236.202 65.4373 236.042 65.224C235.893 65.0107 235.68 64.8293 235.402 64.68C235.136 64.5307 234.821 64.3973 234.458 64.28C234.106 64.152 233.733 64.0187 233.338 63.88C232.453 63.592 231.776 63.208 231.306 62.728C230.848 62.248 230.618 61.6133 230.618 60.824C230.618 60.152 230.778 59.576 231.098 59.096C231.429 58.616 231.882 58.248 232.458 57.992C233.034 57.736 233.69 57.608 234.426 57.608C235.184 57.608 235.845 57.7413 236.41 58.008C236.986 58.264 237.44 58.6373 237.77 59.128C238.112 59.6187 238.288 60.1947 238.298 60.856H235.994C235.984 60.6107 235.909 60.3813 235.77 60.168C235.642 59.944 235.461 59.768 235.226 59.64C234.992 59.5013 234.714 59.432 234.394 59.432C234.117 59.4213 233.861 59.464 233.626 59.56C233.402 59.656 233.221 59.8 233.082 59.992C232.954 60.1733 232.89 60.4027 232.89 60.68C232.89 60.9467 232.954 61.1707 233.082 61.352C233.221 61.5333 233.408 61.6933 233.642 61.832C233.877 61.96 234.154 62.0827 234.474 62.2C234.794 62.3067 235.141 62.4187 235.514 62.536C236.069 62.728 236.581 62.9573 237.05 63.224C237.52 63.48 237.893 63.816 238.17 64.232C238.448 64.648 238.586 65.1973 238.586 65.88C238.586 66.4667 238.432 67.0107 238.122 67.512C237.813 68.0133 237.365 68.4187 236.778 68.728C236.202 69.0373 235.482 69.192 234.618 69.192ZM240.114 72.52L242.066 68.104H241.586L238.354 60.936H240.706L243.01 66.136L245.09 60.936H247.378L242.402 72.52H240.114ZM247.467 69V60.936H249.371L249.531 62.248C249.776 61.8 250.123 61.4373 250.571 61.16C251.029 60.8827 251.573 60.744 252.203 60.744C252.875 60.744 253.44 60.8827 253.899 61.16C254.357 61.4373 254.704 61.8427 254.939 62.376C255.184 62.9093 255.307 63.5653 255.307 64.344V69H253.163V64.552C253.163 63.912 253.024 63.4213 252.747 63.08C252.48 62.7387 252.064 62.568 251.499 62.568C251.136 62.568 250.811 62.6533 250.523 62.824C250.245 62.9947 250.027 63.24 249.867 63.56C249.707 63.8693 249.627 64.248 249.627 64.696V69H247.467ZM259.966 69.192C259.155 69.192 258.435 69.0107 257.806 68.648C257.176 68.2853 256.686 67.7893 256.334 67.16C255.982 66.5307 255.806 65.8107 255.806 65C255.806 64.168 255.982 63.4373 256.334 62.808C256.686 62.168 257.176 61.6667 257.806 61.304C258.435 60.9307 259.155 60.744 259.966 60.744C261 60.744 261.87 61.016 262.574 61.56C263.278 62.104 263.726 62.8507 263.918 63.8H261.63C261.534 63.4267 261.331 63.1333 261.022 62.92C260.723 62.7067 260.366 62.6 259.95 62.6C259.576 62.6 259.24 62.696 258.942 62.888C258.654 63.0693 258.424 63.3413 258.254 63.704C258.094 64.056 258.014 64.4773 258.014 64.968C258.014 65.3413 258.062 65.6773 258.158 65.976C258.254 66.264 258.387 66.5147 258.558 66.728C258.728 66.9307 258.931 67.0853 259.166 67.192C259.411 67.2987 259.672 67.352 259.95 67.352C260.227 67.352 260.478 67.304 260.702 67.208C260.936 67.112 261.134 66.9787 261.294 66.808C261.454 66.6267 261.566 66.408 261.63 66.152H263.918C263.726 67.08 263.272 67.8213 262.558 68.376C261.854 68.92 260.99 69.192 259.966 69.192ZM213.336 84L217.432 72.8H219.88L223.96 84H221.672L218.648 75.264L215.608 84H213.336ZM215.144 81.456L215.72 79.776H221.416L221.976 81.456H215.144ZM224.152 84V75.936H226.312V84H224.152ZM225.24 74.832C224.856 74.832 224.536 74.72 224.28 74.496C224.034 74.2613 223.912 73.968 223.912 73.616C223.912 73.264 224.034 72.976 224.28 72.752C224.536 72.5173 224.856 72.4 225.24 72.4C225.634 72.4 225.954 72.5173 226.2 72.752C226.456 72.976 226.584 73.264 226.584 73.616C226.584 73.968 226.456 74.2613 226.2 74.496C225.954 74.72 225.634 74.832 225.24 74.832Z" fill="#015BDC"/>
    </svg>