<svg width="380" height="138" viewBox="0 0 380 138" fill="none" xmlns="http://www.w3.org/2000/svg">
<rect width="380" height="138" fill="#9FACBF"/>
<path d="M102.8 60.5662V71L100.422 69.6412C96.2004 67.2147 93.5798 62.7015 93.5798 57.8H91.8327V69.7382C91.8327 73.6206 94.0651 77.2118 97.6077 78.9103L102.849 81.4338V71L105.227 72.3588C109.449 74.7853 112.069 79.2985 112.069 84.2H113.817V72.2618C113.817 68.3794 111.584 64.7882 108.042 63.0897L102.8 60.5662Z" fill="white"/>
<path d="M118.921 69V57.8H123.097C124.003 57.8 124.75 57.9547 125.337 58.264C125.923 58.5733 126.361 58.9893 126.649 59.512C126.937 60.024 127.081 60.5947 127.081 61.224C127.081 61.8213 126.942 62.3813 126.665 62.904C126.387 63.416 125.95 63.832 125.353 64.152C124.766 64.4613 124.009 64.616 123.081 64.616H121.081V69H118.921ZM124.729 69L122.425 64.072H124.761L127.193 69H124.729ZM121.081 63.048H122.969C123.619 63.048 124.099 62.888 124.409 62.568C124.718 62.248 124.873 61.8267 124.873 61.304C124.873 60.7813 124.718 60.3707 124.409 60.072C124.11 59.7627 123.63 59.608 122.969 59.608H121.081V63.048ZM131.074 69.192C130.263 69.192 129.543 69.0213 128.914 68.68C128.295 68.328 127.81 67.8427 127.458 67.224C127.117 66.5947 126.946 65.8693 126.946 65.048C126.946 64.2053 127.117 63.464 127.458 62.824C127.81 62.1733 128.295 61.6667 128.914 61.304C129.533 60.9307 130.253 60.744 131.074 60.744C131.874 60.744 132.573 60.92 133.17 61.272C133.767 61.624 134.231 62.0987 134.562 62.696C134.893 63.2933 135.058 63.9707 135.058 64.728C135.058 64.8347 135.058 64.9573 135.058 65.096C135.058 65.224 135.047 65.3573 135.026 65.496H128.482V64.184H132.882C132.85 63.6613 132.663 63.2507 132.322 62.952C131.991 62.6533 131.575 62.504 131.074 62.504C130.711 62.504 130.375 62.5893 130.066 62.76C129.757 62.92 129.511 63.1707 129.33 63.512C129.159 63.8533 129.074 64.2853 129.074 64.808V65.272C129.074 65.7093 129.154 66.0933 129.314 66.424C129.485 66.744 129.719 66.9947 130.018 67.176C130.317 67.3467 130.663 67.432 131.058 67.432C131.453 67.432 131.778 67.3467 132.034 67.176C132.301 67.0053 132.498 66.7867 132.626 66.52H134.834C134.685 67.0213 134.434 67.4747 134.082 67.88C133.73 68.2853 133.298 68.6053 132.786 68.84C132.274 69.0747 131.703 69.192 131.074 69.192ZM139.451 69.192C138.64 69.192 137.915 69.0533 137.275 68.776C136.646 68.4987 136.144 68.0933 135.771 67.56C135.408 67.0267 135.222 66.3813 135.211 65.624H137.499C137.51 65.9547 137.595 66.2533 137.755 66.52C137.915 66.7867 138.134 67 138.411 67.16C138.699 67.3093 139.04 67.384 139.435 67.384C139.776 67.384 140.07 67.3307 140.315 67.224C140.571 67.1067 140.768 66.9467 140.907 66.744C141.046 66.5413 141.115 66.3013 141.115 66.024C141.115 65.704 141.035 65.4373 140.875 65.224C140.726 65.0107 140.512 64.8293 140.235 64.68C139.968 64.5307 139.654 64.3973 139.291 64.28C138.939 64.152 138.566 64.0187 138.171 63.88C137.286 63.592 136.608 63.208 136.139 62.728C135.68 62.248 135.451 61.6133 135.451 60.824C135.451 60.152 135.611 59.576 135.931 59.096C136.262 58.616 136.715 58.248 137.291 57.992C137.867 57.736 138.523 57.608 139.259 57.608C140.016 57.608 140.678 57.7413 141.243 58.008C141.819 58.264 142.272 58.6373 142.603 59.128C142.944 59.6187 143.12 60.1947 143.131 60.856H140.827C140.816 60.6107 140.742 60.3813 140.603 60.168C140.475 59.944 140.294 59.768 140.059 59.64C139.824 59.5013 139.547 59.432 139.227 59.432C138.95 59.4213 138.694 59.464 138.459 59.56C138.235 59.656 138.054 59.8 137.915 59.992C137.787 60.1733 137.723 60.4027 137.723 60.68C137.723 60.9467 137.787 61.1707 137.915 61.352C138.054 61.5333 138.24 61.6933 138.475 61.832C138.71 61.96 138.987 62.0827 139.307 62.2C139.627 62.3067 139.974 62.4187 140.347 62.536C140.902 62.728 141.414 62.9573 141.883 63.224C142.352 63.48 142.726 63.816 143.003 64.232C143.28 64.648 143.419 65.1973 143.419 65.88C143.419 66.4667 143.264 67.0107 142.955 67.512C142.646 68.0133 142.198 68.4187 141.611 68.728C141.035 69.0373 140.315 69.192 139.451 69.192ZM144.947 72.52L146.899 68.104H146.419L143.187 60.936H145.539L147.843 66.136L149.923 60.936H152.211L147.235 72.52H144.947ZM152.299 69V60.936H154.203L154.363 62.248C154.609 61.8 154.955 61.4373 155.403 61.16C155.862 60.8827 156.406 60.744 157.035 60.744C157.707 60.744 158.273 60.8827 158.731 61.16C159.19 61.4373 159.537 61.8427 159.771 62.376C160.017 62.9093 160.139 63.5653 160.139 64.344V69H157.995V64.552C157.995 63.912 157.857 63.4213 157.579 63.08C157.313 62.7387 156.897 62.568 156.331 62.568C155.969 62.568 155.643 62.6533 155.355 62.824C155.078 62.9947 154.859 63.24 154.699 63.56C154.539 63.8693 154.459 64.248 154.459 64.696V69H152.299ZM164.798 69.192C163.988 69.192 163.268 69.0107 162.638 68.648C162.009 68.2853 161.518 67.7893 161.166 67.16C160.814 66.5307 160.638 65.8107 160.638 65C160.638 64.168 160.814 63.4373 161.166 62.808C161.518 62.168 162.009 61.6667 162.638 61.304C163.268 60.9307 163.988 60.744 164.798 60.744C165.833 60.744 166.702 61.016 167.406 61.56C168.11 62.104 168.558 62.8507 168.75 63.8H166.462C166.366 63.4267 166.164 63.1333 165.854 62.92C165.556 62.7067 165.198 62.6 164.782 62.6C164.409 62.6 164.073 62.696 163.774 62.888C163.486 63.0693 163.257 63.3413 163.086 63.704C162.926 64.056 162.846 64.4773 162.846 64.968C162.846 65.3413 162.894 65.6773 162.99 65.976C163.086 66.264 163.22 66.5147 163.39 66.728C163.561 66.9307 163.764 67.0853 163.998 67.192C164.244 67.2987 164.505 67.352 164.782 67.352C165.06 67.352 165.31 67.304 165.534 67.208C165.769 67.112 165.966 66.9787 166.126 66.808C166.286 66.6267 166.398 66.408 166.462 66.152H168.75C168.558 67.08 168.105 67.8213 167.39 68.376C166.686 68.92 165.822 69.192 164.798 69.192ZM118.169 84L122.265 72.8H124.713L128.793 84H126.505L123.481 75.264L120.441 84H118.169ZM119.977 81.456L120.553 79.776H126.249L126.809 81.456H119.977ZM128.984 84V75.936H131.144V84H128.984ZM130.072 74.832C129.688 74.832 129.368 74.72 129.112 74.496C128.867 74.2613 128.744 73.968 128.744 73.616C128.744 73.264 128.867 72.976 129.112 72.752C129.368 72.5173 129.688 72.4 130.072 72.4C130.467 72.4 130.787 72.5173 131.032 72.752C131.288 72.976 131.416 73.264 131.416 73.616C131.416 73.968 131.288 74.2613 131.032 74.496C130.787 74.72 130.467 74.832 130.072 74.832Z" fill="white"/>
<path d="M197.968 60.5662V71L195.59 69.6412C191.368 67.2147 188.747 62.7015 188.747 57.8H187V69.7382C187 73.6206 189.232 77.2118 192.775 78.9103L198.016 81.4338V71L200.394 72.3588C204.616 74.7853 207.237 79.2985 207.237 84.2H208.984V72.2618C208.984 68.3794 206.751 64.7882 203.209 63.0897L197.968 60.5662Z" fill="#015BDC"/>
<path d="M214.088 69V57.8H218.264C219.17 57.8 219.917 57.9547 220.504 58.264C221.09 58.5733 221.528 58.9893 221.816 59.512C222.104 60.024 222.248 60.5947 222.248 61.224C222.248 61.8213 222.109 62.3813 221.832 62.904C221.554 63.416 221.117 63.832 220.52 64.152C219.933 64.4613 219.176 64.616 218.248 64.616H216.248V69H214.088ZM219.896 69L217.592 64.072H219.928L222.36 69H219.896ZM216.248 63.048H218.136C218.786 63.048 219.266 62.888 219.576 62.568C219.885 62.248 220.04 61.8267 220.04 61.304C220.04 60.7813 219.885 60.3707 219.576 60.072C219.277 59.7627 218.797 59.608 218.136 59.608H216.248V63.048ZM226.241 69.192C225.431 69.192 224.711 69.0213 224.081 68.68C223.463 68.328 222.977 67.8427 222.625 67.224C222.284 66.5947 222.113 65.8693 222.113 65.048C222.113 64.2053 222.284 63.464 222.625 62.824C222.977 62.1733 223.463 61.6667 224.081 61.304C224.7 60.9307 225.42 60.744 226.241 60.744C227.041 60.744 227.74 60.92 228.337 61.272C228.935 61.624 229.399 62.0987 229.729 62.696C230.06 63.2933 230.225 63.9707 230.225 64.728C230.225 64.8347 230.225 64.9573 230.225 65.096C230.225 65.224 230.215 65.3573 230.193 65.496H223.649V64.184H228.049C228.017 63.6613 227.831 63.2507 227.489 62.952C227.159 62.6533 226.743 62.504 226.241 62.504C225.879 62.504 225.543 62.5893 225.233 62.76C224.924 62.92 224.679 63.1707 224.497 63.512C224.327 63.8533 224.241 64.2853 224.241 64.808V65.272C224.241 65.7093 224.321 66.0933 224.481 66.424C224.652 66.744 224.887 66.9947 225.185 67.176C225.484 67.3467 225.831 67.432 226.225 67.432C226.62 67.432 226.945 67.3467 227.201 67.176C227.468 67.0053 227.665 66.7867 227.793 66.52H230.001C229.852 67.0213 229.601 67.4747 229.249 67.88C228.897 68.2853 228.465 68.6053 227.953 68.84C227.441 69.0747 226.871 69.192 226.241 69.192ZM234.618 69.192C233.808 69.192 233.082 69.0533 232.442 68.776C231.813 68.4987 231.312 68.0933 230.938 67.56C230.576 67.0267 230.389 66.3813 230.378 65.624H232.666C232.677 65.9547 232.762 66.2533 232.922 66.52C233.082 66.7867 233.301 67 233.578 67.16C233.866 67.3093 234.208 67.384 234.602 67.384C234.944 67.384 235.237 67.3307 235.482 67.224C235.738 67.1067 235.936 66.9467 236.074 66.744C236.213 66.5413 236.282 66.3013 236.282 66.024C236.282 65.704 236.202 65.4373 236.042 65.224C235.893 65.0107 235.68 64.8293 235.402 64.68C235.136 64.5307 234.821 64.3973 234.458 64.28C234.106 64.152 233.733 64.0187 233.338 63.88C232.453 63.592 231.776 63.208 231.306 62.728C230.848 62.248 230.618 61.6133 230.618 60.824C230.618 60.152 230.778 59.576 231.098 59.096C231.429 58.616 231.882 58.248 232.458 57.992C233.034 57.736 233.69 57.608 234.426 57.608C235.184 57.608 235.845 57.7413 236.41 58.008C236.986 58.264 237.44 58.6373 237.77 59.128C238.112 59.6187 238.288 60.1947 238.298 60.856H235.994C235.984 60.6107 235.909 60.3813 235.77 60.168C235.642 59.944 235.461 59.768 235.226 59.64C234.992 59.5013 234.714 59.432 234.394 59.432C234.117 59.4213 233.861 59.464 233.626 59.56C233.402 59.656 233.221 59.8 233.082 59.992C232.954 60.1733 232.89 60.4027 232.89 60.68C232.89 60.9467 232.954 61.1707 233.082 61.352C233.221 61.5333 233.408 61.6933 233.642 61.832C233.877 61.96 234.154 62.0827 234.474 62.2C234.794 62.3067 235.141 62.4187 235.514 62.536C236.069 62.728 236.581 62.9573 237.05 63.224C237.52 63.48 237.893 63.816 238.17 64.232C238.448 64.648 238.586 65.1973 238.586 65.88C238.586 66.4667 238.432 67.0107 238.122 67.512C237.813 68.0133 237.365 68.4187 236.778 68.728C236.202 69.0373 235.482 69.192 234.618 69.192ZM240.114 72.52L242.066 68.104H241.586L238.354 60.936H240.706L243.01 66.136L245.09 60.936H247.378L242.402 72.52H240.114ZM247.467 69V60.936H249.371L249.531 62.248C249.776 61.8 250.123 61.4373 250.571 61.16C251.029 60.8827 251.573 60.744 252.203 60.744C252.875 60.744 253.44 60.8827 253.899 61.16C254.357 61.4373 254.704 61.8427 254.939 62.376C255.184 62.9093 255.307 63.5653 255.307 64.344V69H253.163V64.552C253.163 63.912 253.024 63.4213 252.747 63.08C252.48 62.7387 252.064 62.568 251.499 62.568C251.136 62.568 250.811 62.6533 250.523 62.824C250.245 62.9947 250.027 63.24 249.867 63.56C249.707 63.8693 249.627 64.248 249.627 64.696V69H247.467ZM259.966 69.192C259.155 69.192 258.435 69.0107 257.806 68.648C257.176 68.2853 256.686 67.7893 256.334 67.16C255.982 66.5307 255.806 65.8107 255.806 65C255.806 64.168 255.982 63.4373 256.334 62.808C256.686 62.168 257.176 61.6667 257.806 61.304C258.435 60.9307 259.155 60.744 259.966 60.744C261 60.744 261.87 61.016 262.574 61.56C263.278 62.104 263.726 62.8507 263.918 63.8H261.63C261.534 63.4267 261.331 63.1333 261.022 62.92C260.723 62.7067 260.366 62.6 259.95 62.6C259.576 62.6 259.24 62.696 258.942 62.888C258.654 63.0693 258.424 63.3413 258.254 63.704C258.094 64.056 258.014 64.4773 258.014 64.968C258.014 65.3413 258.062 65.6773 258.158 65.976C258.254 66.264 258.387 66.5147 258.558 66.728C258.728 66.9307 258.931 67.0853 259.166 67.192C259.411 67.2987 259.672 67.352 259.95 67.352C260.227 67.352 260.478 67.304 260.702 67.208C260.936 67.112 261.134 66.9787 261.294 66.808C261.454 66.6267 261.566 66.408 261.63 66.152H263.918C263.726 67.08 263.272 67.8213 262.558 68.376C261.854 68.92 260.99 69.192 259.966 69.192ZM213.336 84L217.432 72.8H219.88L223.96 84H221.672L218.648 75.264L215.608 84H213.336ZM215.144 81.456L215.72 79.776H221.416L221.976 81.456H215.144ZM224.152 84V75.936H226.312V84H224.152ZM225.24 74.832C224.856 74.832 224.536 74.72 224.28 74.496C224.034 74.2613 223.912 73.968 223.912 73.616C223.912 73.264 224.034 72.976 224.28 72.752C224.536 72.5173 224.856 72.4 225.24 72.4C225.634 72.4 225.954 72.5173 226.2 72.752C226.456 72.976 226.584 73.264 226.584 73.616C226.584 73.968 226.456 74.2613 226.2 74.496C225.954 74.72 225.634 74.832 225.24 74.832Z" fill="#015BDC"/>
<path d="M60.9676 60.7662V71.2L58.5897 69.8412C54.3676 67.4147 51.7471 62.9015 51.7471 58H50V69.9382C50 73.8206 52.2323 77.4118 55.775 79.1103L61.0162 81.6338V71.2L63.3941 72.5588C67.6162 74.9853 70.2368 79.4985 70.2368 84.4H71.9838V72.4618C71.9838 68.5794 69.7515 64.9882 66.2088 63.2897L60.9676 60.7662Z" fill="#015BDC"/>
</svg>
