<svg width="380" height="138" viewBox="0 0 380 138" fill="none" xmlns="http://www.w3.org/2000/svg">
<rect width="380" height="138" fill="#9FACBF"/>
<path d="M100.46 58.3949V71.2L97.5419 69.5323C92.3603 66.5544 89.1441 61.0154 89.1441 55H87V69.6515C87 74.4162 89.7397 78.8235 94.0875 80.9081L100.52 84.0052V71.2L103.438 72.8676C108.62 75.8456 111.836 81.3846 111.836 87.4H113.98V72.7485C113.98 67.9838 111.24 63.5765 106.893 61.4919L100.46 58.3949Z" fill="white"/>
<path d="M216.46 58.3949V71.2L213.542 69.5323C208.36 66.5544 205.144 61.0154 205.144 55H203V69.6515C203 74.4162 205.74 78.8235 210.087 80.9081L216.52 84.0052V71.2L219.438 72.8676C224.62 75.8456 227.836 81.3846 227.836 87.4H229.98V72.7485C229.98 67.9838 227.24 63.5765 222.893 61.4919L216.46 58.3949Z" fill="#015BDC"/>
<path d="M42.4603 56.3949V69.2L39.5419 67.5323C34.3603 64.5544 31.1441 59.0154 31.1441 53H29V67.6515C29 72.4162 31.7397 76.8235 36.0875 78.9081L42.5199 82.0052V69.2L45.4382 70.8676C50.6198 73.8456 53.836 79.3846 53.836 85.4H55.9801V70.7485C55.9801 65.9838 53.2404 61.5765 48.8926 59.4919L42.4603 56.3949Z" fill="#015BDC"/>
<path d="M122.108 66V54.8H126.284C127.19 54.8 127.937 54.9547 128.524 55.264C129.11 55.5733 129.548 55.9893 129.836 56.512C130.124 57.024 130.268 57.5947 130.268 58.224C130.268 58.8213 130.129 59.3813 129.852 59.904C129.574 60.416 129.137 60.832 128.54 61.152C127.953 61.4613 127.196 61.616 126.268 61.616H124.268V66H122.108ZM127.916 66L125.612 61.072H127.948L130.38 66H127.916ZM124.268 60.048H126.156C126.806 60.048 127.286 59.888 127.596 59.568C127.905 59.248 128.06 58.8267 128.06 58.304C128.06 57.7813 127.905 57.3707 127.596 57.072C127.297 56.7627 126.817 56.608 126.156 56.608H124.268V60.048ZM135.541 66.192C134.73 66.192 134.01 66.0213 133.381 65.68C132.762 65.328 132.277 64.8427 131.925 64.224C131.584 63.5947 131.413 62.8693 131.413 62.048C131.413 61.2053 131.584 60.464 131.925 59.824C132.277 59.1733 132.762 58.6667 133.381 58.304C134 57.9307 134.72 57.744 135.541 57.744C136.341 57.744 137.04 57.92 137.637 58.272C138.234 58.624 138.698 59.0987 139.029 59.696C139.36 60.2933 139.525 60.9707 139.525 61.728C139.525 61.8347 139.525 61.9573 139.525 62.096C139.525 62.224 139.514 62.3573 139.493 62.496H132.949V61.184H137.349C137.317 60.6613 137.13 60.2507 136.789 59.952C136.458 59.6533 136.042 59.504 135.541 59.504C135.178 59.504 134.842 59.5893 134.533 59.76C134.224 59.92 133.978 60.1707 133.797 60.512C133.626 60.8533 133.541 61.2853 133.541 61.808V62.272C133.541 62.7093 133.621 63.0933 133.781 63.424C133.952 63.744 134.186 63.9947 134.485 64.176C134.784 64.3467 135.13 64.432 135.525 64.432C135.92 64.432 136.245 64.3467 136.501 64.176C136.768 64.0053 136.965 63.7867 137.093 63.52H139.301C139.152 64.0213 138.901 64.4747 138.549 64.88C138.197 65.2853 137.765 65.6053 137.253 65.84C136.741 66.0747 136.17 66.192 135.541 66.192ZM145.198 66.192C144.387 66.192 143.662 66.0533 143.022 65.776C142.393 65.4987 141.891 65.0933 141.518 64.56C141.155 64.0267 140.969 63.3813 140.958 62.624H143.246C143.257 62.9547 143.342 63.2533 143.502 63.52C143.662 63.7867 143.881 64 144.158 64.16C144.446 64.3093 144.787 64.384 145.182 64.384C145.523 64.384 145.817 64.3307 146.062 64.224C146.318 64.1067 146.515 63.9467 146.654 63.744C146.793 63.5413 146.862 63.3013 146.862 63.024C146.862 62.704 146.782 62.4373 146.622 62.224C146.473 62.0107 146.259 61.8293 145.982 61.68C145.715 61.5307 145.401 61.3973 145.038 61.28C144.686 61.152 144.313 61.0187 143.918 60.88C143.033 60.592 142.355 60.208 141.886 59.728C141.427 59.248 141.198 58.6133 141.198 57.824C141.198 57.152 141.358 56.576 141.678 56.096C142.009 55.616 142.462 55.248 143.038 54.992C143.614 54.736 144.27 54.608 145.006 54.608C145.763 54.608 146.425 54.7413 146.99 55.008C147.566 55.264 148.019 55.6373 148.35 56.128C148.691 56.6187 148.867 57.1947 148.878 57.856H146.574C146.563 57.6107 146.489 57.3813 146.35 57.168C146.222 56.944 146.041 56.768 145.806 56.64C145.571 56.5013 145.294 56.432 144.974 56.432C144.697 56.4213 144.441 56.464 144.206 56.56C143.982 56.656 143.801 56.8 143.662 56.992C143.534 57.1733 143.47 57.4027 143.47 57.68C143.47 57.9467 143.534 58.1707 143.662 58.352C143.801 58.5333 143.987 58.6933 144.222 58.832C144.457 58.96 144.734 59.0827 145.054 59.2C145.374 59.3067 145.721 59.4187 146.094 59.536C146.649 59.728 147.161 59.9573 147.63 60.224C148.099 60.48 148.473 60.816 148.75 61.232C149.027 61.648 149.166 62.1973 149.166 62.88C149.166 63.4667 149.011 64.0107 148.702 64.512C148.393 65.0133 147.945 65.4187 147.358 65.728C146.782 66.0373 146.062 66.192 145.198 66.192ZM151.974 69.52L153.926 65.104H153.446L150.214 57.936H152.566L154.87 63.136L156.95 57.936H159.238L154.262 69.52H151.974ZM160.607 66V57.936H162.511L162.671 59.248C162.916 58.8 163.263 58.4373 163.711 58.16C164.169 57.8827 164.713 57.744 165.343 57.744C166.015 57.744 166.58 57.8827 167.039 58.16C167.497 58.4373 167.844 58.8427 168.079 59.376C168.324 59.9093 168.447 60.5653 168.447 61.344V66H166.303V61.552C166.303 60.912 166.164 60.4213 165.887 60.08C165.62 59.7387 165.204 59.568 164.639 59.568C164.276 59.568 163.951 59.6533 163.663 59.824C163.385 59.9947 163.167 60.24 163.007 60.56C162.847 60.8693 162.767 61.248 162.767 61.696V66H160.607ZM174.386 66.192C173.575 66.192 172.855 66.0107 172.226 65.648C171.596 65.2853 171.106 64.7893 170.754 64.16C170.402 63.5307 170.226 62.8107 170.226 62C170.226 61.168 170.402 60.4373 170.754 59.808C171.106 59.168 171.596 58.6667 172.226 58.304C172.855 57.9307 173.575 57.744 174.386 57.744C175.42 57.744 176.29 58.016 176.994 58.56C177.698 59.104 178.146 59.8507 178.338 60.8H176.05C175.954 60.4267 175.751 60.1333 175.442 59.92C175.143 59.7067 174.786 59.6 174.37 59.6C173.996 59.6 173.66 59.696 173.362 59.888C173.074 60.0693 172.844 60.3413 172.674 60.704C172.514 61.056 172.434 61.4773 172.434 61.968C172.434 62.3413 172.482 62.6773 172.578 62.976C172.674 63.264 172.807 63.5147 172.978 63.728C173.148 63.9307 173.351 64.0853 173.586 64.192C173.831 64.2987 174.092 64.352 174.37 64.352C174.647 64.352 174.898 64.304 175.122 64.208C175.356 64.112 175.554 63.9787 175.714 63.808C175.874 63.6267 175.986 63.408 176.05 63.152H178.338C178.146 64.08 177.692 64.8213 176.978 65.376C176.274 65.92 175.41 66.192 174.386 66.192ZM121.356 87L125.452 75.8H127.9L131.98 87H129.692L126.668 78.264L123.628 87H121.356ZM123.164 84.456L123.74 82.776H129.436L129.996 84.456H123.164ZM133.451 87V78.936H135.611V87H133.451ZM134.539 77.832C134.155 77.832 133.835 77.72 133.579 77.496C133.334 77.2613 133.211 76.968 133.211 76.616C133.211 76.264 133.334 75.976 133.579 75.752C133.835 75.5173 134.155 75.4 134.539 75.4C134.934 75.4 135.254 75.5173 135.499 75.752C135.755 75.976 135.883 76.264 135.883 76.616C135.883 76.968 135.755 77.2613 135.499 77.496C135.254 77.72 134.934 77.832 134.539 77.832Z" fill="white"/>
<path d="M238.108 66V54.8H242.284C243.19 54.8 243.937 54.9547 244.524 55.264C245.11 55.5733 245.548 55.9893 245.836 56.512C246.124 57.024 246.268 57.5947 246.268 58.224C246.268 58.8213 246.129 59.3813 245.852 59.904C245.574 60.416 245.137 60.832 244.54 61.152C243.953 61.4613 243.196 61.616 242.268 61.616H240.268V66H238.108ZM243.916 66L241.612 61.072H243.948L246.38 66H243.916ZM240.268 60.048H242.156C242.806 60.048 243.286 59.888 243.596 59.568C243.905 59.248 244.06 58.8267 244.06 58.304C244.06 57.7813 243.905 57.3707 243.596 57.072C243.297 56.7627 242.817 56.608 242.156 56.608H240.268V60.048ZM251.541 66.192C250.73 66.192 250.01 66.0213 249.381 65.68C248.762 65.328 248.277 64.8427 247.925 64.224C247.584 63.5947 247.413 62.8693 247.413 62.048C247.413 61.2053 247.584 60.464 247.925 59.824C248.277 59.1733 248.762 58.6667 249.381 58.304C250 57.9307 250.72 57.744 251.541 57.744C252.341 57.744 253.04 57.92 253.637 58.272C254.234 58.624 254.698 59.0987 255.029 59.696C255.36 60.2933 255.525 60.9707 255.525 61.728C255.525 61.8347 255.525 61.9573 255.525 62.096C255.525 62.224 255.514 62.3573 255.493 62.496H248.949V61.184H253.349C253.317 60.6613 253.13 60.2507 252.789 59.952C252.458 59.6533 252.042 59.504 251.541 59.504C251.178 59.504 250.842 59.5893 250.533 59.76C250.224 59.92 249.978 60.1707 249.797 60.512C249.626 60.8533 249.541 61.2853 249.541 61.808V62.272C249.541 62.7093 249.621 63.0933 249.781 63.424C249.952 63.744 250.186 63.9947 250.485 64.176C250.784 64.3467 251.13 64.432 251.525 64.432C251.92 64.432 252.245 64.3467 252.501 64.176C252.768 64.0053 252.965 63.7867 253.093 63.52H255.301C255.152 64.0213 254.901 64.4747 254.549 64.88C254.197 65.2853 253.765 65.6053 253.253 65.84C252.741 66.0747 252.17 66.192 251.541 66.192ZM261.198 66.192C260.387 66.192 259.662 66.0533 259.022 65.776C258.393 65.4987 257.891 65.0933 257.518 64.56C257.155 64.0267 256.969 63.3813 256.958 62.624H259.246C259.257 62.9547 259.342 63.2533 259.502 63.52C259.662 63.7867 259.881 64 260.158 64.16C260.446 64.3093 260.787 64.384 261.182 64.384C261.523 64.384 261.817 64.3307 262.062 64.224C262.318 64.1067 262.515 63.9467 262.654 63.744C262.793 63.5413 262.862 63.3013 262.862 63.024C262.862 62.704 262.782 62.4373 262.622 62.224C262.473 62.0107 262.259 61.8293 261.982 61.68C261.715 61.5307 261.401 61.3973 261.038 61.28C260.686 61.152 260.313 61.0187 259.918 60.88C259.033 60.592 258.355 60.208 257.886 59.728C257.427 59.248 257.198 58.6133 257.198 57.824C257.198 57.152 257.358 56.576 257.678 56.096C258.009 55.616 258.462 55.248 259.038 54.992C259.614 54.736 260.27 54.608 261.006 54.608C261.763 54.608 262.425 54.7413 262.99 55.008C263.566 55.264 264.019 55.6373 264.35 56.128C264.691 56.6187 264.867 57.1947 264.878 57.856H262.574C262.563 57.6107 262.489 57.3813 262.35 57.168C262.222 56.944 262.041 56.768 261.806 56.64C261.571 56.5013 261.294 56.432 260.974 56.432C260.697 56.4213 260.441 56.464 260.206 56.56C259.982 56.656 259.801 56.8 259.662 56.992C259.534 57.1733 259.47 57.4027 259.47 57.68C259.47 57.9467 259.534 58.1707 259.662 58.352C259.801 58.5333 259.987 58.6933 260.222 58.832C260.457 58.96 260.734 59.0827 261.054 59.2C261.374 59.3067 261.721 59.4187 262.094 59.536C262.649 59.728 263.161 59.9573 263.63 60.224C264.099 60.48 264.473 60.816 264.75 61.232C265.027 61.648 265.166 62.1973 265.166 62.88C265.166 63.4667 265.011 64.0107 264.702 64.512C264.393 65.0133 263.945 65.4187 263.358 65.728C262.782 66.0373 262.062 66.192 261.198 66.192ZM267.974 69.52L269.926 65.104H269.446L266.214 57.936H268.566L270.87 63.136L272.95 57.936H275.238L270.262 69.52H267.974ZM276.607 66V57.936H278.511L278.671 59.248C278.916 58.8 279.263 58.4373 279.711 58.16C280.169 57.8827 280.713 57.744 281.343 57.744C282.015 57.744 282.58 57.8827 283.039 58.16C283.497 58.4373 283.844 58.8427 284.079 59.376C284.324 59.9093 284.447 60.5653 284.447 61.344V66H282.303V61.552C282.303 60.912 282.164 60.4213 281.887 60.08C281.62 59.7387 281.204 59.568 280.639 59.568C280.276 59.568 279.951 59.6533 279.663 59.824C279.385 59.9947 279.167 60.24 279.007 60.56C278.847 60.8693 278.767 61.248 278.767 61.696V66H276.607ZM290.386 66.192C289.575 66.192 288.855 66.0107 288.226 65.648C287.596 65.2853 287.106 64.7893 286.754 64.16C286.402 63.5307 286.226 62.8107 286.226 62C286.226 61.168 286.402 60.4373 286.754 59.808C287.106 59.168 287.596 58.6667 288.226 58.304C288.855 57.9307 289.575 57.744 290.386 57.744C291.42 57.744 292.29 58.016 292.994 58.56C293.698 59.104 294.146 59.8507 294.338 60.8H292.05C291.954 60.4267 291.751 60.1333 291.442 59.92C291.143 59.7067 290.786 59.6 290.37 59.6C289.996 59.6 289.66 59.696 289.362 59.888C289.074 60.0693 288.844 60.3413 288.674 60.704C288.514 61.056 288.434 61.4773 288.434 61.968C288.434 62.3413 288.482 62.6773 288.578 62.976C288.674 63.264 288.807 63.5147 288.978 63.728C289.148 63.9307 289.351 64.0853 289.586 64.192C289.831 64.2987 290.092 64.352 290.37 64.352C290.647 64.352 290.898 64.304 291.122 64.208C291.356 64.112 291.554 63.9787 291.714 63.808C291.874 63.6267 291.986 63.408 292.05 63.152H294.338C294.146 64.08 293.692 64.8213 292.978 65.376C292.274 65.92 291.41 66.192 290.386 66.192ZM237.356 87L241.452 75.8H243.9L247.98 87H245.692L242.668 78.264L239.628 87H237.356ZM239.164 84.456L239.74 82.776H245.436L245.996 84.456H239.164ZM249.451 87V78.936H251.611V87H249.451ZM250.539 77.832C250.155 77.832 249.835 77.72 249.579 77.496C249.334 77.2613 249.211 76.968 249.211 76.616C249.211 76.264 249.334 75.976 249.579 75.752C249.835 75.5173 250.155 75.4 250.539 75.4C250.934 75.4 251.254 75.5173 251.499 75.752C251.755 75.976 251.883 76.264 251.883 76.616C251.883 76.968 251.755 77.2613 251.499 77.496C251.254 77.72 250.934 77.832 250.539 77.832Z" fill="#015BDC"/>
</svg>
